<svg version="1.1" id="Layer_1" xmlns="http://www.w3.org/2000/svg" xmlns:xlink="http://www.w3.org/1999/xlink" x="0px" y="0px"
	 viewBox="0 0 218.4 512" style="enable-background:new 0 0 218.4 512;" xml:space="preserve">
<path d="M215.8,193.5c2.2-4.7,3.8-10.6,1.5-15.5c-3.9-8.5-8.7-16.4-13.3-24.5c-4.2-7.3-8.2-14.8-12.1-22.2
	c-4-7.6-7.6-15.3-11.4-23.1c-6.7-13.9-12.8-28-17.9-42.6c-5.1-15.4-9.1-31.1-13.2-46.7c-0.8-2.9-2-5.4-5.5-5.1
	c-0.4,0.1-0.7,0.2-1,0.3c-0.2-0.1-0.4-0.3-0.6-0.4c-0.9-0.3-1.8-0.4-2.7-0.4c0.3-1.3,0.6-2.7,0.9-4c0.6-2.8,1.7-9.7-3.3-9.3
	c-2.5,0.2-4.8,2.9-6.1,4.8c-0.7,1-1.2,2-1.7,3c-0.5,1-0.9,2.1-1.2,3.3c-3.6,15.2-7.4,30.3-11.5,45.4c-3.1,11.2-6.8,22.1-10.7,33.1
	c-4.6,11.5-9.3,23-14.5,34.2c-3.1,6.6-6.3,13-9.7,19.4c-2.1,4.1-4.4,8-6.7,12c-3,4.9-5.9,9.7-9,14.6c-4.1,6.4-8,13-12.8,18.9
	c0.1-0.2,0.3-0.3,0.4-0.5c-2.4,3.2-4.3,6.5-5.4,10.5c-0.8,2.8-1.1,5.6-0.8,8.5c0.2,2.1,1.2,3.8,3,4.9c2,0.7,3.9,0.4,5.7-0.8
	c6.7-4.2,11.1-11,15.2-17.7c1.8-3,3.6-6,5.3-9c3.8-6.5,7.7-13,11.2-19.7c3.4-6.4,6.7-12.8,9.9-19.4c3.2-6.6,6-13.2,8.9-20
	c4-9.4,7.5-19.1,11-28.8c2.2-6.2,4.4-12.4,6.3-18.7c0,10.3,0,20.7,0,31c0,6.1-0.3,12.2-0.6,18.3c-0.4,9.3-0.6,18.6-1.1,27.9
	c-0.5,10.4-1.5,20.8-2.3,31.2c-0.7,9.2-1.8,18.4-2.8,27.6c-0.4,3.9-1.1,7.9-1.6,11.8c-0.7,5.2-1.4,10.3-2.2,15.5
	c-1.1,7.6-2.7,15.2-4.1,22.8c-1.8,7.7-3.5,15.4-5.3,23.1c-1.7,7.5-4.1,14.9-6.1,22.3c-2,7.3-4.6,14.5-6.9,21.7
	c-1.6,5.1-3.5,10-5.4,15c-6.3,15.6-12.9,31.1-19.8,46.5c-3.1,6.9-6.3,13.9-9.7,20.6c-2,4-3.9,8.1-6.1,12c-1.2,2.2-2.5,4.5-3.7,6.7
	c-3.5,5.5-7,10.9-10.8,16.2c-3,4.2-6.3,8.2-9.6,12.2c-5.1,6-10.2,12-15.1,18.1c-0.2,0.2-0.4,0.5-0.6,0.7c-0.9,1-1.7,2-2.5,3l0,0
	c-2.9,3.9-5.3,8-6.6,12.8c-1.1,3.4-1.4,6.9-0.9,10.5c0.2,2.7,1.5,4.7,3.7,6c2.5,0.8,4.8,0.5,7-1c9.2-4.9,15.6-14.1,22-22
	c6-7.2,11.9-14.5,17.3-22.1c2.9-4.1,5.6-8.4,8.3-12.6c3.7-5.8,7-12,10.4-18.1c4.6-8.2,8.5-16.7,12.5-25.2
	c3.7-7.8,7.2-15.6,10.6-23.5c4.1-9.7,8.2-19.4,12.1-29.2c2.2-5.5,4.3-11.1,6.2-16.7c1.5-4.3,3.2-8.6,4.5-13
	c2.8-9.1,5.8-18.2,8.2-27.4c1.4-5.4,2.9-10.8,4.3-16.2c1.1-4.3,1.9-8.7,2.8-13c1.3-6,2.7-11.9,3.7-17.9c0.8-5.2,1.7-10.3,2.6-15.5
	c0.6-3.9,1.4-7.9,1.9-11.8c0.7-5.5,1.4-11.1,2-16.6c2.3-19.1,3.4-38.2,4.5-57.4c1.1-19.4,1.5-38.7,1.6-58.1c1.9,5.5,4,11,6.2,16.4
	c2,5,4,10.1,6.3,15.1c4.1,8.8,8,17.8,12.3,26.6c4.5,9.1,9,18.2,13.6,27.2c2,3.9,4.2,7.7,6.4,11.5c1.3,2.2,2.7,4.3,4.2,6.3
	c1.9,2.6,4.4,4.8,6.8,6.9c1.9,0.7,3.7,0.4,5.4-0.7c1-0.8,2-1.5,2.9-2.3C212.7,198.9,214.5,196.3,215.8,193.5z"/>
</svg>
